<svg width="8" height="5" viewBox="0 0 8 5" fill="none" xmlns="http://www.w3.org/2000/svg">
<path fill-rule="evenodd" clip-rule="evenodd" d="M0.292007 0.292941C0.1052 0.481833 0.000427246 0.736777 0.000427246 1.00244C0.000427246 1.2681 0.1052 1.52305 0.292007 1.71194L3.23101 4.67694C3.44901 4.89194 3.73101 4.99894 4.01001 4.99894C4.28901 4.99894 4.56601 4.89194 4.77901 4.67694L7.70901 1.72194C7.89557 1.53292 8.00018 1.27803 8.00018 1.01244C8.00018 0.746856 7.89557 0.49196 7.70901 0.302941C7.61718 0.209757 7.50773 0.135759 7.38705 0.0852509C7.26636 0.0347429 7.13684 0.0087328 7.00601 0.0087328C6.87518 0.0087328 6.74565 0.0347429 6.62497 0.0852509C6.50428 0.135759 6.39484 0.209757 6.30301 0.302941L4.00501 2.61994L1.69801 0.292941C1.60597 0.20012 1.49646 0.126444 1.3758 0.0761652C1.25514 0.0258864 1.12572 0 0.995008 0C0.864292 0 0.73487 0.0258864 0.614211 0.0761652C0.493552 0.126444 0.384044 0.20012 0.292007 0.292941Z" fill="white"/>
</svg>
