<svg width="10" height="10" viewBox="0 0 10 10" fill="none" xmlns="http://www.w3.org/2000/svg">
<path fill-rule="evenodd" clip-rule="evenodd" d="M5.04199 8.08236L2.76408 9.27994C2.66774 9.33059 2.55916 9.35328 2.4506 9.34544C2.34204 9.3376 2.23785 9.29955 2.14979 9.23558C2.06173 9.17161 1.99332 9.08429 1.9523 8.98347C1.91128 8.88266 1.89928 8.77238 1.91766 8.66511L2.35224 6.12819L0.509495 4.33152C0.431672 4.25554 0.376643 4.15931 0.350621 4.05371C0.324598 3.9481 0.32862 3.83732 0.362231 3.73388C0.395842 3.63044 0.457703 3.53845 0.54083 3.46831C0.623958 3.39817 0.725039 3.35267 0.832661 3.33694L3.37949 2.96652L4.51874 0.658856C4.56688 0.561168 4.64141 0.478906 4.73388 0.421384C4.82636 0.363861 4.93309 0.333374 5.04199 0.333374C5.1509 0.333374 5.25763 0.363861 5.35011 0.421384C5.44258 0.478906 5.5171 0.561168 5.56524 0.658856L6.70391 2.96652L9.25074 3.33694C9.35841 3.35258 9.45957 3.39802 9.54277 3.46812C9.62597 3.53823 9.68791 3.6302 9.72159 3.73366C9.75526 3.83712 9.75933 3.94793 9.73334 4.05358C9.70735 4.15923 9.65233 4.2555 9.57449 4.33152L7.73116 6.12819L8.16633 8.66511C8.18463 8.7723 8.1726 8.88248 8.1316 8.98321C8.0906 9.08393 8.02226 9.17119 7.9343 9.23513C7.84633 9.29907 7.74225 9.33715 7.63379 9.34507C7.52533 9.35299 7.41681 9.33043 7.32049 9.27994L5.04199 8.08236Z" fill="#3A7FC1"/>
</svg>
