<svg width="17" height="17" viewBox="0 0 17 17" fill="none" xmlns="http://www.w3.org/2000/svg">
<path d="M8.4973 12.6861L12.4773 14.8791L11.7173 10.2241L14.9933 6.87705L10.4693 6.18705L8.4973 2.00005L6.5253 6.18905L2.0013 6.87805L5.2773 10.2231L4.5153 14.8781L8.4973 12.6861ZM8.4973 14.9691L5.48131 16.6311C5.15265 16.8122 4.77966 16.8972 4.40498 16.8764C4.03029 16.8555 3.66903 16.7297 3.36247 16.5133C3.05591 16.2968 2.81643 15.9985 2.6714 15.6524C2.52636 15.3063 2.48163 14.9264 2.5423 14.5561L3.1413 10.9001L0.571305 8.27605C0.313622 8.01301 0.13356 7.68393 0.0509637 7.32509C-0.0316329 6.96624 -0.0135583 6.59156 0.103196 6.24233C0.21995 5.8931 0.430851 5.58288 0.712657 5.34587C0.994463 5.10885 1.33623 4.95423 1.7003 4.89905L5.17031 4.37105L6.6883 1.14705C6.85005 0.80401 7.106 0.514029 7.4263 0.310933C7.7466 0.107837 8.11804 0 8.4973 0C8.87657 0 9.24801 0.107837 9.56831 0.310933C9.88861 0.514029 10.1446 0.80401 10.3063 1.14705L11.8253 4.37105L15.2953 4.89905C15.6592 4.95453 16.0007 5.10937 16.2823 5.34651C16.5638 5.58365 16.7745 5.8939 16.891 6.24308C17.0075 6.59226 17.0254 6.96682 16.9427 7.32552C16.86 7.68422 16.68 8.01314 16.4223 8.27605L13.8533 10.9001L14.4523 14.5561C14.5131 14.9265 14.4684 15.3066 14.3234 15.6529C14.1783 15.9991 13.9387 16.2976 13.632 16.5141C13.3253 16.7305 12.9638 16.8563 12.5889 16.877C12.2141 16.8977 11.841 16.8125 11.5123 16.6311L8.4973 14.9691Z" fill="#B9B9B9"/>
</svg>
